<?xml version="1.0" encoding="utf-8"?>
<!-- Generator: Adobe Illustrator 23.0.3, SVG Export Plug-In . SVG Version: 6.00 Build 0)  -->
<svg version="1.1" id="Layer_1" xmlns="http://www.w3.org/2000/svg" xmlns:xlink="http://www.w3.org/1999/xlink" x="0px" y="0px"
	 viewBox="0 0 248.2 357.5" style="enable-background:new 0 0 248.2 357.5;" xml:space="preserve">
<style type="text/css">
	.st0{fill:none;stroke:#000000;stroke-width:0.25;stroke-miterlimit:10;}
</style>
<path id="XMLID_15550_" class="st0" d="M169.5,351.4C169.5,351.4,169.4,351.4,169.5,351.4c-0.1,0-0.1,0-0.2,0L169.5,351.4
	L169.5,351.4z M38.5,356.7C38.5,356.7,38.5,356.6,38.5,356.7C38.5,356.6,38.5,356.6,38.5,356.7L38.5,356.7L38.5,356.7z M36.7,355.8
	L36.7,355.8L36.7,355.8L36.7,355.8C36.7,355.8,36.7,355.8,36.7,355.8z M226.2,105.6c0-0.7-0.1-1-0.2-1c-0.1,0-0.2,0.2-0.1,1.1
	C226.1,105.6,226.1,105.6,226.2,105.6z M176.4,351L176.4,351l0.1,0C176.6,351,176.5,351,176.4,351C176.5,351,176.5,351,176.4,351z
	 M10.6,266.7C10.6,266.8,10.6,266.8,10.6,266.7C10.6,266.8,10.7,266.7,10.6,266.7L10.6,266.7C10.6,266.7,10.6,266.7,10.6,266.7z
	 M10.4,325.2c0,0.2,0,0.3,0.1,0.3c0.1,0,0.2-0.1,0.2-0.3C10.6,325.2,10.5,325.2,10.4,325.2z M223,348.8L223,348.8L223,348.8
	C223.1,348.8,223.1,348.8,223,348.8C223,348.8,223,348.8,223,348.8z M219.6,348.7C219.6,348.7,219.6,348.7,219.6,348.7L219.6,348.7
	L219.6,348.7C219.7,348.7,219.6,348.7,219.6,348.7z M242.8,297.4c0-0.1,0-0.2,0-0.3l-0.1-0.3c0,0.1,0,0.3,0,0.4
	C242.8,297.3,242.8,297.4,242.8,297.4z M59.4,0.3c-0.5,0-0.7,0-0.7,0.1c0,0.1,0.1,0.2,0.7,0.2C59.5,0.4,59.5,0.3,59.4,0.3z
	 M105.5,353C105.5,353,105.5,353,105.5,353C105.6,353,105.6,353,105.5,353C105.6,352.9,105.5,352.9,105.5,353
	C105.5,353,105.5,353,105.5,353z M5,187.6c0,0.5,0.1,0.7,0.2,0.7c0.1,0,0.2-0.2,0.1-0.8C5.2,187.6,5.1,187.6,5,187.6z M4,49.8
	c0-0.1,0-0.2,0-0.3c0,0,0-0.1,0-0.1L4,49.7L4,49.8z M188.3,4.7l-0.2,0.1C188.3,4.8,188.3,4.8,188.3,4.7c0.1,0.1,0.2,0.1,0.2,0.1
	L188.3,4.7z M20.1,356.7L20.1,356.7L20.1,356.7L20.1,356.7C20.1,356.7,20.1,356.7,20.1,356.7z M60.6,355.2
	C60.7,355.2,60.7,355.3,60.6,355.2c0.1,0,0.2,0,0.3,0c0,0,0,0-0.1,0C60.8,355.2,60.7,355.2,60.6,355.2z M190,351.4c0,0,0-0.1,0-0.1
	c0,0,0,0-0.1,0L190,351.4C190,351.4,190,351.4,190,351.4z M0.5,3.7c1.2-0.2,2.2-0.1,3.4-0.4c0.2,0,0.4,0,0.3,0.1
	C2.9,3.6,2.9,3.6,2.5,3.8c-0.8,0.3-0.8,0.3-2,0.6c0.1,0.1,0.3,0.3,0.4,0.4c2.1-0.2,2.1-0.2,3.1-0.6c1.1,0.1,2.4,0.1,3.9-0.2
	c0.3,0,0.6-0.1,0.9-0.1c0.3,0,0.8,0,0.9,0c0.3,0.2,0.9,0,1.4,0c1,0,1.9-0.1,3-0.3c1-0.1,2.1-0.3,3.1-0.3c0.3-0.1,0.6-0.2,0.9-0.3
	c-0.1-0.1-0.8-0.1-0.6-0.3c1.4-0.3,1.9,0,2.8,0.1c0.4-0.1,0.8-0.2,1.3-0.3c0.8-0.2,1.2-0.2,1.7-0.1c0.4,0.1,0.7,0.2,1.4,0.2
	c0.2,0,0.3,0.1,0.5,0.1c0.8,0.2,1.9,0.2,3.2,0c0.3,0,0.6-0.1,0.9-0.1c0.5,0,0.9-0.2,1.3-0.2c0.5,0,1,0.1,1.5,0c0.7,0,1.5,0,2.2-0.2
	c0.6-0.1,1.3-0.2,2-0.1c0.5,0.1,1.2,0.1,1.7-0.1c0.8-0.2,1.5-0.2,2.2-0.1c0.4,0.1,0.8,0.1,1.4,0c-0.1-0.1-0.2-0.2-0.3-0.3
	c0.4,0,0.7,0,0.9,0c0.8,0,1.6,0.1,2.3,0.2c0.7,0.1,1.2,0,1.9-0.1c0.2-0.1,0.4-0.2,0.6-0.3c0.3,0,0.6,0,0.9-0.1
	c0.1,0.1,0.2,0.1,0.3,0.2c0.4,0.2,0.6,0.2,1.3,0.1c0.7-0.1,1.3-0.1,2-0.2c0.2-0.2,0.3-0.3,0.9-0.3l0.3,0c0.9,0,1.4-0.1,1.5-0.3
	c0.1-0.1,0.1-0.3,0.1-0.4c0.3-0.1,0.6-0.2,1-0.3C55.5,0.2,56,0,56.7,0c1.2,0,2.4,0,3.5,0c0.2,0,0.3,0,0.5,0.1
	c-0.1,0.1-0.2,0.2-0.3,0.2c0.8,0.2,0.8,0.2,1.3,0.2c0.4,0,0.8,0,1.3,0c1.1-0.1,2.1-0.1,3.1,0.1c0.7,0.1,1.4,0.1,2.1,0
	c0.8-0.1,1.6-0.2,2.5-0.3c0.5,0.1,1,0.2,1.4,0.3c0.7,0,1.3-0.1,1.9-0.1c0.6,0,1.2,0.1,1.9,0.2c0.9-0.2,1.9-0.3,3.1-0.4
	c0.2,0.1,0.4,0.2,0.7,0.3c0.4,0,0.7,0,1-0.1c0.6-0.1,1.2-0.2,2,0c0.2,0,0.6,0.1,0.8,0c0.7-0.1,1.3,0,1.9,0.1c0.7,0,1.2,0.1,1.7,0.3
	c0,0,0.2,0,0.4,0c0.2-0.1,0.4-0.2,0.6-0.3c0.6,0,1.2,0,1.8,0c0.6,0,1.3,0.1,1.9,0c0.6,0.1,1.1,0.1,1.7,0.1c0.3,0,0.7,0.1,1,0.1
	C95.2,0.9,96.1,1,97,1c0.1,0,0.1,0,0.2,0.1c-0.1,0.1-0.9,0-0.9,0.2c0.4,0,0.8,0,1.1,0c0.8,0,1.6,0,2.4,0c0.1,0.1,0.2,0.1,0.3,0.2
	c0.2,0.1,0.4,0.1,0.6,0c0.1,0,0.1,0,0.2-0.1c0.4,0.1,0.9,0.1,1.4,0.1c1,0,1.9,0,2.8,0.2c0.1,0,0.4,0,0.7,0c1.3-0.1,2.7,0,4,0.1
	c0.6,0,1,0.1,1.5,0c1-0.1,2.1-0.2,3.2,0c0.4,0,0.8,0,1.2,0c0.1-0.1,0-0.2,0.5-0.3c0.8,0,1.4-0.2,2.3,0c-0.1,0.1-0.1,0.2-0.2,0.3
	c0.6,0.1,1,0.1,1.6,0.1c1.2-0.1,2.5-0.1,3.8,0.1c1.3,0.2,2.6,0.2,4,0.2c1.1,0,2.4,0.1,3.5-0.1c0.1,0,0.2,0,0.4,0
	c0.9,0,1.8,0.1,2.7,0.1c0.2-0.1,0.4-0.2,0.6-0.3c0.1,0.1,0.2,0.1,0.4,0.1c0.5-0.2,0.9-0.2,1.5,0c0.4,0.1,0.7,0.1,1,0.2
	c0.1,0.1-0.6,0.2-0.2,0.3c0.7,0,1.4-0.1,2.1-0.1c0.5,0,1,0,1.4,0.1c0.7,0.2,1.4,0.2,2.2,0.2c0.9,0,1.8,0.1,2.6,0.2
	c0.8,0.1,1.7,0.2,2.5,0.3c0.8-0.3,0.8-0.3,0.3-0.5c0.2,0,0.4,0,0.6,0l0.5,0c0,0.3,0,0.3,0.9,0.4c-0.1-0.1-0.1-0.2-0.2-0.4
	c0.7,0.1,1.2,0.2,1.7,0.2c0.6,0,1.1,0,1.7-0.1h2.3c1.3,0,2.5,0,3.7,0.1c0.9,0.1,1.7,0.1,2.5,0c1-0.1,1.8,0,2.4,0.3
	c0.1,0.1,0.2,0.1,0.4,0.2c0.3,0.1,0.7,0.1,1.1,0.1c0.2,0,0.4-0.1,0.5-0.1c0.8,0.1,1.5,0.2,2.2,0.2c0.8,0,1.7,0,2.5,0.1
	c0.9-0.2,1.5,0.1,2.3,0.1c0.2,0,0.5,0,0.7,0l1.6,0c0.4,0,0.8,0,1,0.2c0,0,0.5,0.1,0.6,0c0.6-0.1,1.1,0,1.7,0.1
	c0.4-0.1,0.8-0.3,1.6-0.2c0.2,0.2,0.4,0.3,1,0.5c0.4,0,0.9,0,1.4,0c0.1,0,0.3-0.1,0.4-0.1c1-0.3,1.7-0.3,2.4,0.1
	c0.6,0.3,0.9,0.3,2,0.2c0.2,0,0.3-0.1,0.5-0.1c0.9,0,1.7-0.1,2.5,0.1c0.1,0,0.4,0,0.7,0c0.9,0,1.9,0,2.7-0.1c0.1,0,0.5,0,0.7,0
	c0.7,0,1.3,0,1.9,0.1c1.5,0.1,2.9,0.1,4.4,0.1c0.8,0,1.6-0.1,2.5,0c0.1,0.1,0.3,0.1,0.4,0.2c0.4-0.1,0.8-0.1,1-0.2
	c0.9,0,1.3,0.2,2,0.3c0.4,0,0.9,0,1.3,0c0.4,0.1,0.7,0.2,1,0.3c0.3-0.1,0.4-0.1,0.7-0.2c0.2,0,0.6,0,0.6,0c0.4,0.2,1,0.2,1.6,0.2
	c0.5,0,0.9,0,1.4,0c1.1,0.1,2.1,0,3.1,0.4c0.9,0.3,1.6,1.1,1.8,2.1c0.2,0.6,0.1,1,0.1,1.4l0,0l0,0.6c0,0.9,0.2,1.8,0.2,2.6
	c0,0.7,0.1,1.4,0.1,2.1c0.1,1.1,0.3,2.2,0.3,3.4c0,0.1,0,0.2,0,0.3c0.2,1.5,0.4,3,0.7,4.6c0.1,0.1,0.2,0.3,0.4,0.4l0-0.1l0.4,0
	c-0.1,1.4-0.1,3,0.1,4.8c0,0.4,0.1,0.9,0.1,1.3c0,0.5,0,1.3,0,1.4c-0.2,0.4,0,1.4-0.1,2.1c0,1.5,0.1,2.9,0.2,4.4
	c0.1,1.6,0.3,3.2,0.2,4.7c0.1,0.5,0.2,1,0.3,1.4c0.1-0.2,0.1-1.1,0.3-0.9c0.3,2.1,0,2.9-0.1,4.2c0.1,0.6,0.2,1.3,0.3,1.9
	c0.2,1.1,0.2,1.8,0.1,2.5c-0.1,0.5-0.2,1-0.2,2c0,0.3,0,0.5-0.1,0.7c-0.2,1.3-0.2,2.9,0,4.7c0,0.4,0.1,0.9,0.1,1.3
	c0,0.8,0.2,1.4,0.2,2c0,0.8,0,1.5,0,2.3c0.1,1.1,0.1,2.3,0.3,3.3c0.2,0.9,0.3,1.9,0.2,3c0,0.8,0,1.8,0.2,2.5
	c0.3,1.2,0.3,2.2,0.2,3.3c-0.1,0.6,0,1.3,0.1,2.1c0.1-0.1,0.2-0.3,0.3-0.4c0,0.5,0.1,1,0.1,1.4c0,1.2,0,2.4,0,3.5c0,1,0,1.8,0.2,2.9
	c0.1,0.3,0.3,0.6,0.4,0.9c0,0.4,0.1,0.8,0.1,1.3c-0.1,0.2-0.1,0.3-0.2,0.5c-0.2,0.5-0.2,0.8-0.1,1.9c0.1,1,0.2,2,0.3,3
	c0.2,0.2,0.3,0.4,0.3,1.4v0.5c0,1.3,0.2,2.1,0.4,2.3c0.1,0.1,0.3,0.1,0.4,0.2c0.1,0.5,0.3,0.9,0.4,1.4c0.2,0.7,0.4,1.3,0.4,2.4
	c0.1,1.8,0.2,3.5,0.3,5.3c0,0.2,0,0.4,0,0.7c-0.1-0.1-0.2-0.3-0.3-0.4c-0.1,1.2-0.1,1.2,0,2c0,0.6,0.1,1.3,0.1,1.8
	c0.2,1.6,0.3,3.1,0.2,4.7c0,1,0,2,0.2,3.1c0.2,1.2,0.4,2.4,0.6,3.7c0,0.7-0.1,1.6-0.1,2.1c0.1,1.1,0.2,2,0.3,2.8
	c0.1,0.9,0,1.8,0,2.8c0.4,1.3,0.6,2.8,0.8,4.5c-0.1,0.4-0.1,0.7-0.2,1.1c0.1,0.5,0.1,1.1,0.2,1.4c0.2,0.9,0.3,1.8,0.3,2.9
	c0,0.3,0,0.9,0.1,1.2c0.2,1,0.1,1.9,0.2,2.8c0.1,1.1,0,1.8-0.1,2.5c0,0.1,0,0.3,0,0.6c0.1,0.2,0.2,0.5,0.4,0.8
	c0.1,0.9,0.1,1.8,0.2,2.7c0.1,0.9,0,1.9,0.2,2.8c0,0.8,0.1,1.7,0.2,2.6c0,0.5,0,1.1,0,1.5c-0.1,1.2,0,2.6,0.1,4c0,0.1,0,0.2,0,0.3
	c-0.1-0.1-0.1-1.3-0.3-1.3c0,0.6,0.1,1.1,0.1,1.7c0.2,1.7,0.3,3.3,0.3,4.9c0,0.6,0.1,1.4,0.1,2.1c0.2,1.4,0.4,2.8,0.3,4.1
	c0,0.2,0.1,0.7,0.1,1c0.3,2,0.5,4,0.6,6c0.1,0.8,0.1,1.5,0.3,2.2c0.3,1.5,0.5,3.1,0.6,4.8c0,0.6,0.1,1.2,0.2,1.7
	c0.1,0.2,0.2,0,0.3,0.7c0.2,1.1,0.5,2.1,0.4,3.4c-0.1-0.1-0.2-0.2-0.3-0.3c0,0.9,0.1,1.5,0.2,2.4c0.3,1.8,0.6,3.7,0.6,5.6
	c0,1.9,0.2,3.9,0.5,5.9c0.3,1.7,0.4,3.6,0.7,5.1c0,0.1,0,0.3,0,0.5c0.1,1.3,0.3,2.6,0.4,4c0.1,0.3,0.3,0.5,0.4,0.7
	c-0.1,0.1-0.1,0.4,0,0.7c0.3,0.7,0.3,1.3,0.3,2.2c0,0.5,0,1,0,1.5c-0.1,0.1-0.3-0.9-0.4-0.3c0.1,0.4,0.1,0.8,0.2,1.2
	c-0.1,0-0.2,0-0.3-0.1v0.2v0.2h0h0c0,0,0,0,0,0l-0.1,0h-0.1v0l0,0l-0.7,0.1v0h0v0v0l0,0l0,0.1c0,0.1,0,0.1,0,0.2c0,0.1,0,0.3,0,0.4
	c0,0.3,0.1,0.6,0.2,0.8c0,0.1,0.1,0.2,0.1,0.4c0,0.1,0.1,0.3,0,0.4c-0.1,0.2,0.1,0.4,0.1,0.6c0.1,0.4,0.3,0.8,0.5,1.1
	c0.2,0.4,0.5,0.7,0.6,1.1c0.1,0.1,0.2,0.1,0.3,0.1c0,0.5,0.1,0.9,0.1,1.4c0.2,1.3,0.3,2.6,0.3,3.9c0.1,1.3,0.1,2.5,0.2,3.8
	c0.4,1.1,0.4,1.1,0.5,0.4c0,0.3,0.1,0.6,0.1,0.8c0,0.3,0,0.5,0.1,0.8c-0.3,0-0.3,0-0.2,1.4c0.1-0.1,0.2-0.2,0.3-0.4
	c0,0.6,0,1.1,0,1.6c-0.1,0.1-0.2,0.1-0.2,0.1v0c0.1,0,0.2,0.1,0.3,0.1c0,0.2,0,0.5,0,0.7c0.1,0.8,0.3,1.6,0.4,2.5
	c0.1,1.1,0.3,2.3,0.4,3.4c0.3,1.8,0.4,3.7,0.6,5.5c0.1,1.3,0.2,2.5,0.4,3.8c0.3,1.4,0.3,2.6,0.1,3.5c0,0.2-0.1,0.3-0.1,0.6
	c0,0.5,0,1.1,0.1,1.7c0.1,0.3,0.1,0.5,0.2,0.7c0.1,1.2,0.1,2.2,0.2,3.2c0.1,1.2,0.3,2.4,0.4,3.7c0.3,1.3,0.2,2.3,0.3,3.4
	c0,0.3,0.1,0.7,0.1,1.1l0.3,2.3c0.1,0.7,0.1,1.2,0,1.4c0,0,0,0.7,0.1,0.9c0.3,0.9,0.2,1.7,0.3,2.5c0.2,0.6,0.4,1.2,0.5,2.3
	c-0.1,0.3-0.3,0.6-0.3,1.5c0.1,0.6,0.1,1.3,0.2,2.1c0.1,0.2,0.2,0.3,0.2,0.6c0,0.1,0,0.1,0.1,0.2c-0.2,0.1-0.3,0.3-0.5,0.4
	c0,0.1,0,0.3,0,0.4h0c0.2-0.1,0.4-0.3,0.6-0.5c0.3,1.1,0.4,2,0.1,3.1c-0.2,1-0.2,1.3,0.1,3c0,0.2,0.1,0.4,0.1,0.7
	c0.2,1.3,0.4,2.5,0.3,3.7c0,0.2,0,0.7,0.1,1c0.2,1.3,0.3,2.8,0.7,3.9c0.1,0.2,0.1,0.7,0.1,1c0.1,1,0.2,2,0.3,2.9
	c0.1,2.2,0.4,4.3,0.7,6.5c0.2,1.2,0.4,2.4,0.4,3.6c0,0.2-0.1,0.4-0.1,0.7c0.2,0.7,0.3,1.1,0.4,1.5c0.1,1.3,0,2,0,3
	c0.1,0.6,0.2,1.3,0.3,2c0,0.5-0.1,1-0.1,1.6c0.1,0.4,0.2,0.6,0.3,1c0.1,0.3,0.1,0.9,0.1,0.9c-0.2,0.6,0,1.5,0.1,2.4
	c0.1,0.7,0.2,1.3,0.3,2c0.2,3.2,0.7,6.3,1.1,9.4c0.2,0.9,0.1,1.4,0.1,2.1c0,0,0,0,0,0.1c0,0.3,0,0.6,0,0.9c0,0.6,0.1,1.3,0.2,1.9
	c-0.4,0.4-0.8,0.8-1.2,1.1c-0.8,0.6-1.7,1.1-2.7,1.4c-1.5,0.6-3.2,0.9-4.8,0.7c-0.1,0-0.3,0-0.5,0c-0.3,0-0.5,0-0.7-0.1
	c0-0.1,0.1-0.2,0-0.2c-0.1-0.1-0.2-0.2-0.1-0.3c0,0,0,0,0,0c-0.1,0-0.2-0.1-0.2-0.1c0,0-0.1,0-0.1,0c0,0.1-0.1,0.2,0,0.3
	c0,0.1-0.1,0.2-0.1,0.3c-0.2,0-0.4-0.1-0.5-0.1c0,0,0,0,0-0.1c0,0-0.1,0-0.1,0c-1.5-0.4-2.9-1.1-4.2-2.2c-0.2-0.1-0.5-0.2-0.7-0.3
	l-0.1-0.7c0.1,0,0.2,0,0.3,0c0.2-0.1,0.3,0,0.5,0.1h0c0.1,0,0.1,0,0.2,0.1c0.3,0,0.6-0.1,0.9,0c0.2,0.1,0.5,0,0.7,0
	c0.4,0,0.7-0.1,1.1,0c0,0,0.1,0,0.1,0c0.5-0.1,1-0.1,1.6-0.2c0-0.1,0.1-0.2,0.2-0.3c0,0,0,0,0,0c-0.4,0-0.8,0-1.2,0.1
	c-0.3,0-0.5,0.1-0.7,0c-0.1,0-0.3-0.1-0.4,0c-0.1,0.1-0.2,0-0.3-0.1c-0.1-0.1,0-0.2,0.1-0.2c0.2-0.1,0.2-0.2,0.1-0.3
	c-0.1-0.1-0.2-0.1-0.3-0.1c0,0-0.1,0-0.1,0c-0.2,0.1-0.5,0.1-0.7,0.1c-0.1,0-0.2,0-0.4,0c-0.4,0.1-0.7,0.1-1.1,0.1
	c-0.2,0-0.3,0-0.5,0.1c-0.2,0-0.3,0.2-0.6,0.2c-0.3,0-0.2-0.3-0.4-0.4c-0.4,0-0.9,0-1.4,0.2c-0.5-0.1-0.9,0.2-1.4,0.2
	c-0.1-0.1-0.3-0.3-0.4-0.4c-0.1,0-0.1,0-0.2,0c-0.8,0.3-1.7,0.4-2.5,0.7c-0.6,0.2-1.3,0.3-1.9,0.5c-0.2,0.1-0.4,0-0.6,0.1
	c0,0-0.1,0-0.2,0c-0.2-0.1-0.4-0.1-0.7,0c-0.4,0.1-0.7,0.1-1.1,0c-0.3-0.1-0.7-0.1-1.1-0.1c-0.1-0.3-0.1-0.3,0.1-0.6
	c-0.1,0-0.3-0.1-0.4-0.1c-0.3,0.1-0.6,0.1-0.8,0.3c-0.5,0.2-1,0.4-1.5,0.7c-0.4,0.2-0.8,0.2-1.1,0.2c0-0.1,0-0.2,0.1-0.3
	c-0.1,0-0.3,0-0.4,0c-0.7,0.1-1.3,0.2-2,0.4c-0.9,0.2-1.8,0.4-2.7,0.4c-0.1,0-0.1,0-0.2,0c-0.6,0.1-1.2,0.1-1.8,0.2
	c-0.6,0-1.2,0.1-1.8,0.1l-1,0.1l-1.1,0.1c-0.2,0-0.4,0.1-0.5,0.3c0,0.1,0.1,0.2,0.1,0.3c-0.2,0-0.4,0.1-0.6,0.1c-0.3,0-0.6,0-0.8,0
	l-3,0.2c-0.4,0-0.7,0.1-1.1,0c-0.1,0-0.2,0-0.3,0c-0.5,0.1-1.1,0.1-1.6,0.1c-0.3,0-0.6,0.1-1,0c-0.3,0-0.5,0-0.7,0.1
	c-0.1,0-0.3,0.1-0.3,0c-0.4-0.2-0.8-0.1-1.1,0c-0.5,0.1-0.9,0.2-1.4,0.2c-0.1,0-0.2,0-0.3,0c-0.2,0-0.5,0.1-0.7,0
	c-0.4-0.1-0.7,0-1.1,0l-0.4,0c-0.3,0-0.6,0-0.8,0c-0.3,0-0.6,0-0.9-0.1c-0.4-0.1-0.8-0.1-1.2-0.1c-0.3,0-0.6,0.1-1,0.1
	c-0.7,0-1.3,0-2-0.1c-0.4,0-0.8,0-1.2,0c-0.4,0-0.8-0.2-1.2,0c0,0,0,0-0.1,0c-0.5,0-0.9,0-1.4,0.1c-0.1,0-0.3,0.1-0.4,0.1
	c-0.2,0-0.4,0-0.5,0.1c-0.1,0.1-0.3,0.1-0.4,0.1c-0.8-0.1-1.5-0.1-2.3,0c-0.1,0-0.3,0-0.4-0.1c0.4-0.1,0.9-0.2,1.2-0.4
	c0.1-0.1,0.3-0.1,0.5-0.1c0.5-0.1,0.9-0.2,1.4-0.2c1-0.1,2-0.4,3.1-0.7c0.6-0.1,1.1-0.4,1.7-0.4c0.1,0,0.2,0.1,0.3,0.1
	c0.3-0.1,0.5-0.3,0.7-0.3c0.6-0.1,1,0,1.5,0c0.3-0.1,0.6-0.2,0.9-0.3c0.3,0.1,0.5,0.1,0.8,0.1c0.2-0.1,0.3-0.2,0.4-0.3
	c0.1,0,0.4-0.1,0.4-0.1c0.3,0.2,0.7,0.1,1.2-0.1c0.3-0.1,0.6-0.2,1-0.2c1.5-0.1,3-0.5,4.5-0.7c0.4-0.1,0.7,0,1,0l0,0
	c0.1,0,0.3,0,0.4,0c0.6,0,1.3-0.1,1.8,0c0.5,0.1,1,0,1.5,0c0.8,0,1.6-0.1,2.4,0c0.1,0,0.2,0,0.2,0c1.1,0,2.1,0,3.3,0.1
	c0.1-0.1,0.3-0.2,0.4-0.3l0,0c-0.9-0.1-1.7-0.2-2.6-0.2c-0.5,0-1,0-1.5-0.1c-0.3,0-0.6-0.1-1,0c-0.3,0-0.5,0-0.6-0.1
	c-0.1-0.1-0.1-0.2,0.2-0.2c0.3-0.1,0.4-0.2,0.3-0.3c-0.1-0.1-0.4-0.1-0.7-0.1c-0.1,0-0.2,0-0.3,0c-0.5,0.1-1,0.1-1.5,0.1
	c-0.2,0-0.5,0-0.8,0.1c-0.7,0.1-1.5,0.1-2.2,0.3c-0.3,0-0.7,0.1-1,0.1c-0.4,0-0.7,0.3-1.2,0.3c-0.6,0-0.4-0.3-0.9-0.3
	c-0.9,0.1-2,0.2-2.9,0.5c-1,0-2,0.4-3,0.6c-0.3-0.1-0.5-0.2-0.7-0.3c-0.2,0-0.3,0-0.4,0c-1.7,0.5-3.6,0.9-5.3,1.4
	c-1.3,0.4-2.7,0.7-4,1c-0.4,0.1-0.9,0.1-1.4,0.3c-0.1,0-0.2,0-0.3,0c-0.4-0.1-0.9,0-1.4,0.1c-0.3,0.1-0.6,0.1-0.8,0.1
	c0,0-0.1,0-0.1,0c-0.3-0.1-0.7-0.1-1.1-0.1c-0.1,0-0.1,0-0.3,0.2c-0.7,0-1.5,0-2.3,0c-0.1-0.3-0.1-0.3,0.3-0.6
	c-0.3,0-0.5-0.1-0.8-0.1c-0.6,0.1-1.2,0.2-1.8,0.3c-1,0.2-2.1,0.4-3.1,0.7c0,0,0,0,0,0c-0.1-0.1-0.1-0.2-0.1-0.3
	c-0.4,0-0.9,0-1.3-0.1c-0.1,0-0.2,0-0.2,0c-0.1,0-0.2,0-0.4,0c-0.1-0.1-0.1-0.2-0.1-0.3c-0.1-0.1-0.3-0.1-0.4-0.1c0,0-0.1,0-0.1,0
	c-0.3-0.1-0.6-0.2-0.9-0.2c-0.3,0-0.6,0.1-0.9,0c0,0-0.1,0-0.1,0c-0.1,0.1-0.3,0.1-0.5,0.1c0,0,0,0.1,0,0.1c0.3,0.1,0.6,0.2,0.8,0.2
	c0.4,0,0.7,0.3,1.1,0.2c0.1,0,0.1,0.1,0.1,0.1c-0.5,0-0.5,0-0.6,0.1c0,0,0,0-0.1,0h0c-1.3,0.1-2.6,0.2-3.9,0.3
	c-1.9,0.2-3.9,0.3-5.8,0.2c-0.1,0-0.3,0-0.4,0c-1.3,0-2.5,0-3.8,0l-3.8-0.1h-2.2l-2.4,0c-0.5,0-0.9,0.1-1.1,0.3
	c0.1,0.1,0.1,0.6,0.2,0.7c-0.4,0-0.8-1-1.2,0.5h0h0c0,0,0,0,0,0l0,0h0c-0.2,0-0.3,0-0.5,0l0,0h-1.2l-6.5-0.3c-0.8,0-1.5-0.1-2.3-0.2
	c-0.2,0-0.4-0.1-0.6-0.1c-1.1,0.1-2.3,0-3.4,0.1c-0.7,0-1.4,0-2,0c-0.6,0-1.1,0-1.6,0.1c-0.2,0-0.6,0.1-0.7,0
	c-0.8-0.2-1.6-0.1-2.4,0c-1,0.1-2,0.2-3.1,0.2c-0.2,0-0.4,0-0.6,0c-0.5,0-1,0.1-1.5,0c-0.8-0.1-1.6,0-2.4,0l-0.9,0l-1.8,0
	c-0.6,0-1.3,0-1.9-0.1c-0.8-0.1-1.6-0.1-2.5-0.1c-0.7,0-1.4,0.1-2,0.1l-4.3,0c-0.8,0-1.7,0-2.5,0c-0.9,0-1.7-0.1-2.6,0
	c0,0-0.1,0-0.1,0c-1,0-2,0.1-3,0.2c-0.3,0-0.6,0.1-0.9,0.1c-0.4,0-0.8,0-1.1,0.2c-0.2,0.1-0.6,0.1-0.8,0.1c-1.6,0-3.3,0-5,0.1
	c-0.4,0-0.7,0.1-1.1-0.1c-0.1,0-0.5,0-0.7,0c-0.3,0-0.6,0-0.9,0c-0.6-0.1-1.2,0-1.8,0c-0.3,0-0.7,0-1,0c-1.1,0-2.1-0.1-3.1-0.1
	c-0.7,0-1.5,0-2.3,0c-0.3,0-0.4,0-0.7,0.3c0.2,0,0.4,0,0.6,0c0.2,0,0.5-0.1,0.6,0c0.4,0.1,1,0.1,1.4,0.1h0c0.2,0.1,0.5,0.2,0.6,0.3
	c0.3,0.3,0.3,0.3,0.8,0.2c0.7-0.1,1.2,0,1.8,0c0.5,0.1,1,0.2,1.4,0.2c0.1,0,0.3,0,0.2,0.2c-0.5,0.1-1.1,0.1-1.7,0.1
	c-1.8,0.1-3.6,0.1-5.3,0.2c-0.6,0-1.2,0.1-1.7,0c-0.2,0-0.4,0-0.6,0l-2.3,0c-0.9,0-1.2,0-1.9-0.3c-0.1,0-0.2-0.1-0.3-0.1
	c-0.8,0-1.7-0.1-2.5,0c-0.4,0.1-0.8,0.1-1.2,0c-0.2,0-0.5-0.1-0.7-0.1c-0.8-0.1-1.7,0-2.5,0c-0.2,0-0.5,0.1-0.7,0
	c-0.4,0-0.7,0-1,0.1c-0.2,0-0.5,0.1-0.7,0.1c-0.3,0-0.5,0-0.7-0.1c-0.2,0-0.2-0.1-0.3-0.2c-1,0-1.9,0.1-2.8,0.1
	c-0.1,0-0.3,0-0.5,0.1c-0.2,0-0.5,0-0.7,0.1c-0.2-0.1-0.2-0.2-0.4-0.3c-0.3-0.1-0.6-0.1-1,0c-0.1,0-0.2,0-0.3,0
	c-0.6-0.1-1.3-0.1-2-0.1c-0.6,0.1-1.3,0.2-1.9,0.1c-0.1,0-0.2,0-0.2,0c-0.3,0.1-0.6,0.2-1,0.2c0,0,0,0.1,0,0.1
	c0.6,0,1.2,0.1,1.8,0.1c0.8,0,1.6,0.2,2.4,0.1c0.1,0,0.3,0,0.2,0.1c-1,0.1-1,0.1-1.3,0.2c-0.6,0.2-0.6,0.2-1.5,0.2
	c0.1,0.1,0.2,0.3,0.2,0.4c0.4,0,0.7,0,0.9,0v0.1c-0.5,0.1-1,0-1.5,0.1c-0.4,0.1-0.7,0-1.1,0.1c-0.1,0-0.2-0.1-0.4,0c0,0,0,0-0.1-0.1
	c-0.1-0.1-0.2-0.1-0.4-0.1c-0.2,0-0.4,0-0.6-0.2c-0.2-0.1-0.4-0.2-0.6-0.3c0-0.4,0-0.4,0.1-0.6c-0.1-0.1-0.1-0.2-0.2-0.2
	c-0.2,0-0.3,0-0.5,0.1c-0.3,0.1-0.7,0.2-1,0.4c-0.2,0.1-0.4,0-0.6,0c0-0.1,0-0.2,0.1-0.3c-0.1,0-0.1-0.1-0.2-0.1
	c-0.4,0-0.8,0-1.2,0.1c-0.5,0.1-1,0.2-1.5,0.1c0,0-0.1,0-0.1,0c-0.3,0-0.7,0-1,0c-0.3,0-0.7,0-1,0c-0.2,0-0.4,0-0.6,0l-0.6,0
	c-0.1,0-0.2,0.1-0.3,0.3c0,0.1,0,0.2,0.1,0.3c-0.1,0-0.2,0.1-0.3,0.1c-0.1,0-0.3,0-0.5,0c-0.6,0-1.1,0.1-1.7,0.2
	c-0.2,0-0.4,0.1-0.6,0c0,0-0.1,0-0.2,0c-0.3,0.1-0.6,0.1-0.8,0.2c-0.2,0-0.3,0.1-0.5,0c-0.1,0-0.3,0-0.4,0.1c0,0-0.1,0.1-0.2,0
	c-0.2-0.2-0.4-0.1-0.6,0c-0.3,0.2-0.5,0.3-0.8,0.2c-0.1,0-0.1,0-0.2,0c-0.1,0-0.3,0.1-0.4,0c-0.2-0.1-0.4,0-0.6,0h-0.2
	c-0.1,0-0.3,0-0.4,0c-0.1,0-0.3,0-0.5-0.1c-0.2-0.1-0.4-0.1-0.6-0.1c-0.2,0-0.3,0.1-0.5,0.1c-0.4,0-0.7,0-1.1-0.1
	c-0.2,0-0.4-0.1-0.6-0.1c-0.1,0-0.4-0.2-0.6-0.1c0,0,0,0,0,0c-0.2-0.1-0.4,0-0.7,0c-0.1,0-0.1,0-0.2,0c-0.1,0-0.2,0-0.3,0.1
	c0,0.1-0.1,0.1-0.2,0c-0.4-0.2-0.7-0.2-1.1-0.3c-0.1,0-0.2,0-0.2-0.2c0-0.1-0.1-0.1-0.1-0.1c-0.1,0-0.1,0-0.2-0.1
	c-0.1-0.1-0.2-0.2-0.3-0.2c-0.1,0-0.1-0.1-0.2-0.1c-0.1-0.2-0.4-0.3-0.5-0.5c-0.1-0.1-0.3-0.2-0.4-0.3c0,0-0.1,0-0.3,0.1
	c0,0,0.1,0.1,0.1,0.1c0,0,0.1,0,0.1,0.1c0,0.2,0.1,0.2,0.2,0.3c0,0.1,0,0.2-0.1,0.4c-0.1,0.3-0.1,0.3,0,0.3c0.2,0,0.3,0.1,0.3,0.3
	c0.1,0.1,0.1,0.3,0.2,0.4c0,0,0.1,0.1,0,0.2c-0.2,0-0.3,0-0.4-0.1c-0.4-0.2-0.8-0.5-1.2-0.7c-0.1-0.1-0.3-0.2-0.3-0.4
	c0-0.1-0.1-0.1-0.1-0.1c-0.1-0.2-0.3-0.3-0.4-0.5v0c0.3-0.2,0.6-0.4,0.8-0.7c0-0.2,0.1-0.4,0.1-0.6l0,0c-0.2,0.4-0.5,0.6-0.9,0.9
	c0,0,0-0.1,0.1-0.1c0,0,0.1-0.1,0-0.1c-0.1-0.2,0-0.4-0.2-0.6c-0.1-0.1-0.1-0.2-0.1-0.3c0-0.1,0.1-0.1,0.1-0.2
	c0.1-0.2,0-0.3-0.1-0.6c0-0.1,0-0.1,0-0.2c0-0.1,0-0.2,0-0.3c0-0.1,0-0.1,0-0.2c0,0,0-0.1,0.1-0.1c0,0,0,0,0.1,0
	c0,0.1,0.1,0.3,0.1,0.4c0,0,0.1,0,0.1,0c0-0.3,0.1-0.6,0.1-0.9c0,0,0,0,0,0c0,0,0.1-0.1,0.1-0.1c0,0,0-0.1,0-0.1c0-0.1,0-0.1,0-0.2
	c0.1,0,0.3,0,0.3,0.1c0.1,0,0.1-0.1,0.1-0.2c0,0,0,0,0,0c0,0.1,0,0.2,0,0.4c0.1,0,0.3-0.1,0.4-0.1c0.1-0.6,0.1-0.8,0-1
	c0,0,0,0,0.1-0.1c0,0,0,0,0-0.1c-0.1-0.1,0-0.2,0-0.3c0,0,0,0-0.1-0.1c0,0,0,0-0.1,0.1c0.3-0.5,0.4-1.1,0.3-1.7c0-0.1,0-0.3,0-0.4
	c0-0.2,0.1-0.4,0.1-0.4c0.2-0.1,0.1-0.4,0.2-0.6c0.1-0.4,0.1-0.9,0.1-1.4c0-0.5-0.1-1,0.1-1.4c-0.1-0.2-0.2-0.3-0.2-0.4
	c-0.1,0-0.1,0.4-0.3,0.3c-0.2-0.6,0.1-0.9,0.4-1.3c-0.1-0.2-0.1-0.4-0.2-0.6c-0.1-0.4-0.1-0.6,0.1-0.8c0.1-0.1,0.3-0.3,0.3-0.6
	c0-0.1,0.1-0.2,0.1-0.2c0.3-0.4,0.4-0.9,0.3-1.4c0-0.1,0-0.3,0-0.4c0.1-0.3-0.1-0.4-0.1-0.6c0-0.2,0.1-0.5,0.1-0.7
	c0-0.3,0-0.7-0.1-1c-0.1-0.3-0.1-0.6,0-0.9c0.1-0.2,0.1-0.5,0-0.8c-0.2-0.4-0.2-0.7,0-1c0.1-0.2,0.1-0.4,0-0.6
	c-0.1,0-0.2,0.1-0.3,0.1c0-0.2,0-0.3,0-0.4c0.1-0.4,0.1-0.7,0.2-1.1c0.1-0.3,0.1-0.6,0-0.9c-0.1-0.1-0.2-0.2-0.3-0.3
	c0-0.1,0-0.3-0.1-0.4c0.1-0.1,0.1-0.1,0.2-0.1c0.2-0.1,0.2-0.3,0.2-0.6c-0.1-0.3-0.1-0.6-0.2-0.9c-0.2-0.1-0.3-0.1-0.2-0.4
	c0-0.1,0-0.1,0-0.2c0-0.4,0-0.6-0.3-0.7c-0.1,0-0.3,0-0.4,0c-0.1-0.1-0.2-0.3-0.3-0.4c-0.1-0.2-0.3-0.4-0.3-0.7c0-0.5,0-1.1,0-1.6
	c0-0.1,0-0.1,0.1-0.2c0.1,0,0.2,0.1,0.2,0.1c0.2-0.4,0.2-0.4,0.2-0.6c0-0.2,0-0.4,0-0.6c-0.1-0.5-0.1-1,0-1.4c0.1-0.3,0.1-0.6,0-0.9
	c-0.1-0.3-0.2-0.7-0.3-1.1c0.1-0.2,0.2-0.5,0.2-0.7c0-0.3-0.1-0.6-0.1-0.9c0-0.3,0.1-0.6,0.1-0.8c-0.3-0.4-0.4-0.9-0.5-1.4
	c0.1-0.1,0.2-0.2,0.3-0.3c0-0.2-0.1-0.3-0.1-0.4c-0.1-0.3-0.2-0.6-0.1-0.9c0-0.1,0-0.3,0-0.4c-0.1-0.3,0-0.6,0-0.9
	c0-0.3,0.1-0.6,0.2-0.8c0,0,0-0.1,0-0.2c-0.1-0.1-0.2-0.1-0.3-0.2c0-0.3,0-0.6,0-0.8c0-0.3,0.1-0.6,0-0.8c0.1-0.3,0-0.5,0-0.8
	c0-0.1,0-0.3,0.1-0.4c0.1-0.4,0.2-0.8,0.2-1.2c0,0,0-0.1,0.1-0.1c0.1,0,0,0.4,0.2,0.4c0-0.2,0-0.4,0-0.5c0-0.5-0.1-1,0-1.5
	c0.1-0.2,0.1-0.4,0.1-0.6c0-0.4-0.1-0.9,0.1-1.3c0-0.1,0-0.2,0-0.3c-0.1-0.6-0.1-1.2,0-1.8c0-0.3,0-0.4-0.1-0.7
	c-0.2-0.5-0.2-0.9-0.1-1.5c0-0.2,0-0.4,0-0.5c-0.1-0.1-0.2,0-0.3-0.2c-0.1-0.3-0.3-0.7-0.1-1.1c0.1,0,0.2,0.1,0.3,0.1
	c0.1-0.3,0.1-0.5,0-0.7c-0.1-0.6-0.2-1.1-0.1-1.7c0.2-0.6,0.1-1.2,0-1.8c-0.1-0.5,0-1.1-0.2-1.6c0,0,0-0.1,0-0.1c0-0.4,0-0.8,0-1.2
	c-0.1-0.1-0.2-0.2-0.3-0.2c0.1,0,0.1-0.1,0-0.2c-0.2-0.2-0.2-0.4-0.1-0.7c0.1-0.1,0.1-0.3,0.2-0.4c0.1,0,0.2,0.3,0.3,0.1
	c-0.1-0.3-0.1-0.6-0.2-0.9c0-0.2,0-0.4,0-0.6c0.1-0.3,0.1-0.6,0.1-1c0-0.4,0-0.8,0.1-1.2c0.1-0.4,0.1-0.8,0.2-1.1
	c-0.3-0.3-0.3-0.3-0.5-0.1c0-0.1,0-0.2,0-0.2c0-0.1,0-0.2,0-0.2c0.3,0,0.3,0,0.4-0.4c-0.1,0-0.2,0.1-0.3,0.1
	c0.1-0.3,0.2-0.6,0.2-0.8c0-0.3-0.1-0.5-0.1-0.8c0-0.3,0-0.7-0.1-1c-0.1-0.6,0-1.1,0-1.7c0-0.4,0.1-0.7,0-1.1
	c-0.1-0.4,0-0.8,0.2-1.1c0.1-0.1,0.1-0.1,0.2-0.2c0.1-0.1,0.1-0.3,0-0.5c0-0.1-0.1-0.2-0.1-0.2c0-0.4,0.1-0.7,0.1-1
	c0-0.4-0.1-0.7,0-1.1c-0.2-0.4,0-0.7,0-1c0-0.1,0-0.2,0-0.3c0-0.2-0.1-0.5-0.1-0.7c0-0.2,0-0.4,0.1-0.4c0,0,0.1-0.2,0-0.3
	c-0.2-0.3,0-0.5,0-0.8c-0.1-0.2-0.3-0.4-0.3-0.7c0.2-0.1,0.3-0.2,0.4-0.4c0-0.2,0-0.4,0-0.6c-0.1-0.1-0.1-0.1-0.2-0.2
	c-0.3-0.4-0.3-0.7,0-1.1c0.3-0.3,0.3-0.4,0.2-0.9c0-0.1-0.1-0.1-0.1-0.2c-0.1-0.4-0.2-0.8,0-1.1c0,0,0-0.2,0-0.3
	c0-0.4-0.1-0.8-0.2-1.2c0-0.1,0-0.2,0-0.3c0-0.3,0-0.6,0-0.9c0.1-0.7,0-1.3-0.1-2c0-0.4-0.1-0.7,0-1.1c0.1-0.1,0.1-0.1,0.2-0.2
	c-0.1-0.2-0.2-0.4-0.2-0.5c0-0.4,0.2-0.6,0.3-0.9c0-0.2-0.1-0.4-0.1-0.6c0.1-0.2,0.2-0.3,0.3-0.5c-0.1-0.1-0.1-0.2-0.2-0.3
	c0-0.1,0-0.3,0-0.3c0.2-0.2,0.2-0.4,0.1-0.7c-0.1-0.2-0.1-0.4-0.1-0.6c0.1-1-0.1-1.9-0.1-2.9c-0.1-0.3,0-0.4,0.1-0.6c0,0,0,0,0,0
	c0-0.1,0-0.2,0-0.3c0.1-0.4,0-0.8,0-1.2c0.1-0.3,0-0.6,0-1c0-0.5-0.1-1,0-1.5c0-0.1,0-0.1,0-0.2c-0.1-0.7-0.2-1.4-0.3-2.1
	c-0.1-0.1-0.2-0.1-0.3-0.2c0,0,0,0,0,0c0,0.6,0.1,1.1,0.2,1.6c0.1,0.3,0.1,0.6,0,1c0,0.2-0.1,0.4,0,0.6c0.1,0.2,0,0.3-0.1,0.4
	c-0.1,0.1-0.2,0.1-0.3-0.1c-0.1-0.2-0.2-0.3-0.3-0.2c0,0,0,0,0,0.1c0-0.6-0.1-0.8-0.3-1.5c0.2-1.1,0.2-2.6,0-4.2
	c0-0.3-0.1-0.7-0.1-1c0-0.4,0-0.9,0-1c0.2-0.3,0-1,0.1-1.5c0-1.1-0.1-2.1-0.2-3.2c-0.1-1.1-0.2-2.3-0.2-3.3c-0.1-0.4-0.2-0.7-0.3-1
	c-0.1,0.1-0.1,0.8-0.3,0.6c-0.3-1.5,0-2.1,0.1-3c-0.1-0.4-0.1-0.9-0.2-1.4c-0.1-0.8-0.2-1.3,0-1.8c0.1-0.4,0.2-0.8,0.2-1.4
	c0-0.2,0.1-0.4,0.1-0.5c0.2-0.9,0.2-2.1,0-3.4c0-0.3-0.1-0.7-0.1-0.9c0-0.6-0.1-1-0.2-1.4c0-0.6,0-1.1,0-1.6
	c-0.1-0.8-0.1-1.6-0.3-2.4c-0.2-0.7-0.2-1.4-0.1-2.2c0.1-0.6,0-1.3-0.1-1.8c-0.3-0.8-0.3-1.6-0.1-2.3c0.1-0.4,0-0.9-0.1-1.5
	c-0.1,0.1-0.2,0.2-0.3,0.3c0-0.4-0.1-0.7-0.1-1c0-0.8,0-1.7,0.1-2.5c0-0.7,0-1.3-0.1-2.1c-0.1-0.2-0.3-0.4-0.4-0.6
	c0-0.3-0.1-0.6-0.1-0.9c0.1-0.1,0.1-0.2,0.2-0.3c0.2-0.4,0.2-0.6,0.1-1.3c-0.1-0.7-0.2-1.4-0.3-2.2c-0.2-0.2-0.3-0.3-0.3-1l0-0.4
	c0-0.9-0.1-1.5-0.4-1.6c-0.1-0.1-0.3-0.1-0.4-0.1c-0.1-0.3-0.2-0.7-0.3-1c-0.2-0.5-0.4-1-0.4-1.7c-0.1-1.3-0.1-2.5-0.2-3.8
	c0-0.2,0-0.3,0-0.5c0.1,0.1,0.2,0.2,0.3,0.3c0.1-0.8,0.1-0.8,0.1-1.4c0-0.4-0.1-0.9-0.1-1.3c-0.1-1.2-0.2-2.3-0.1-3.3
	c0.1-0.7,0-1.4-0.1-2.2c-0.1-0.8-0.3-1.7-0.4-2.6c0.1-0.5,0.1-1.1,0.2-1.5c-0.1-0.8-0.2-1.4-0.2-2c0-0.7,0-1.3,0.1-2
	c-0.3-0.9-0.5-2.1-0.6-3.3c0.1-0.3,0.2-0.5,0.3-0.8c-0.1-0.4-0.1-0.8-0.2-1c-0.2-0.7-0.2-1.3-0.2-2.1c0-0.2,0-0.7,0-0.9
	c-0.1-0.7,0-1.4,0-2c0-0.8,0-1.3,0.2-1.8c0,0,0-0.2,0-0.4c-0.1-0.2-0.2-0.4-0.3-0.6c0-0.7,0-1.3-0.1-1.9c-0.1-0.7,0.1-1.4-0.1-2
	c0.1-0.6,0-1.2,0-1.8c0-0.4,0-0.8,0-1.1c0.1-0.9,0.1-1.9,0.1-2.9c0-0.1,0-0.1,0.1-0.2c0.1,0.1,0,1,0.2,0.9c0-0.4,0-0.8,0-1.2
	c-0.1-1.2-0.2-2.4,0-3.6c0-0.4,0.1-1,0-1.5c0-1-0.1-2,0-3c0-0.1,0-0.5-0.1-0.7c-0.2-1.4-0.2-2.9-0.1-4.3c0-0.6,0-1.1-0.1-1.6
	c-0.2-1.1-0.3-2.2-0.2-3.5c0-0.4,0-0.8,0-1.2c-0.1-0.1-0.2,0-0.3-0.5c-0.1-0.8-0.3-1.5-0.1-2.5c0.1,0.1,0.2,0.1,0.3,0.2
	c0.1-0.6,0-1.1,0-1.7c-0.1-1.3-0.3-2.7-0.1-4.1c0.2-1.4,0.1-2.8,0-4.3c-0.1-1.2,0-2.6-0.2-3.7c0-0.1,0-0.3,0-0.4c0-1,0-1.9,0-2.9
	c-0.1-0.2-0.2-0.4-0.3-0.6c0.1-0.1,0.1-0.3,0-0.5c-0.2-0.5-0.2-1-0.1-1.6c0-0.4,0.1-0.7,0.1-1c0.1-0.1,0.2,0.7,0.3,0.2
	c-0.1-0.8-0.1-1.5-0.2-2.2c0-0.5,0-1.1,0-1.5c0.2-0.7,0.1-1.5,0.1-2.4c0-1,0-1.9,0.1-2.8c0.1-0.9,0.1-1.8,0.2-2.7
	c-0.3-0.8-0.3-0.8-0.5-0.3c0-0.2,0-0.4,0-0.6l0-0.5c0.3,0,0.3,0,0.4-1c-0.1,0.1-0.2,0.1-0.3,0.2c0.1-0.7,0.2-1.3,0.2-1.9
	c0-0.6-0.1-1.2-0.1-1.8l-0.1-2.5c-0.1-1.3,0-2.7,0.1-4c0-0.9,0.1-1.8,0-2.7c-0.1-1,0-1.9,0.2-2.5c0-0.1,0.1-0.2,0.2-0.4
	c0.1-0.3,0.1-0.8,0.1-1.2c0-0.2-0.1-0.4-0.1-0.5c0-0.8,0.1-1.6,0.1-2.3c0-0.9,0-1.8,0.1-2.6c-0.2-0.9,0.1-1.6,0.1-2.4
	c0-0.3,0-0.5,0-0.8l-0.1-1.7c0-0.5,0-0.9,0.1-1c0,0,0.1-0.5,0-0.6c-0.1-0.6,0-1.2,0-1.8c-0.1-0.4-0.3-0.9-0.3-1.7
	c0.2-0.2,0.3-0.4,0.5-1c0-0.5,0-1,0-1.5c-0.1-0.1-0.1-0.3-0.2-0.4c-0.3-1-0.3-1.8,0.1-2.6C4,51.8,4,51.6,3.9,50.3
	c0-0.2-0.1-0.3-0.1-0.5c0-0.9-0.2-1.8,0.1-2.7c0-0.1,0-0.5,0-0.7c0-1,0-2-0.2-2.8c0-0.2,0-0.5,0-0.7c0-0.7,0-1.4,0-2.1
	c0.1-1.6,0-3.1-0.1-4.7c-0.1-0.8-0.2-1.7-0.1-2.6c0.1-0.1,0.1-0.3,0.2-0.5c-0.1-0.5-0.2-0.8-0.3-1.1c0-1,0.1-1.4,0.2-2.2
	c-0.1-0.4-0.1-0.9-0.2-1.4c0.1-0.4,0.1-0.8,0.2-1.1c-0.1-0.3-0.2-0.5-0.2-0.7c0-0.2-0.1-0.6,0-0.7c0.2-0.4,0.1-1.1,0-1.8
	c-0.1-0.5-0.2-0.9-0.2-1.5c-0.1-2.3-0.6-4.5-0.9-6.8c-0.2-0.6-0.1-1-0.2-1.5c0,0,0,0,0-0.1l0-0.6c-0.1-0.9-0.4-1.9-0.4-2.8
	C1.6,10,1.4,9.2,1.2,8.5C1,7.3,0.6,6.2,0.4,5c0-0.1-0.1-0.2-0.1-0.4L0,3.8C0.2,3.8,0.4,3.7,0.5,3.7z"/>
</svg>
